<?xml version="1.0" standalone="no"?>
<!DOCTYPE svg PUBLIC "-//W3C//DTD SVG 20010904//EN"
 "http://www.w3.org/TR/2001/REC-SVG-20010904/DTD/svg10.dtd">
<svg version="1.0" xmlns="http://www.w3.org/2000/svg"
 width="260.000000pt" height="260.000000pt" viewBox="0 0 260.000000 260.000000"
 preserveAspectRatio="xMidYMid meet">
<metadata>
Created by potrace 1.11, written by Peter Selinger 2001-2013
</metadata>
<g transform="translate(0.000000,260.000000) scale(0.100000,-0.100000)"
fill="#000000" stroke="none">
<path d="M2510 2282 c0 -8 -3 -12 -7 -9 -3 4 -12 -1 -20 -11 -13 -15 -14 -15
-9 8 3 14 3 19 0 12 -5 -10 -9 -10 -22 0 -13 11 -14 11 -7 -2 17 -28 15 -41
-5 -30 -20 11 -46 -10 -32 -26 4 -5 -2 -1 -14 8 -18 16 -22 16 -42 3 -13 -10
-19 -22 -16 -33 5 -16 5 -16 -6 1 -6 9 -8 23 -5 30 4 6 -1 3 -9 -7 -9 -11 -16
-25 -16 -32 0 -9 -8 -10 -32 -4 -29 8 -31 8 -15 -4 16 -13 15 -14 -17 -11 -33
3 -35 2 -25 -17 7 -13 7 -18 1 -14 -6 3 -12 1 -14 -6 -3 -7 -7 -5 -11 6 -5 11
-3 15 5 10 7 -4 8 -3 4 5 -9 14 -28 4 -24 -12 2 -7 -2 -12 -7 -12 -6 0 -9 4
-7 8 1 4 -7 3 -18 -3 -11 -6 -20 -15 -20 -21 0 -6 -7 -3 -16 5 -8 9 -21 16
-27 16 -7 0 -4 -5 5 -11 10 -5 15 -16 11 -25 -5 -12 -7 -12 -19 3 -12 17 -13
16 -9 -4 2 -13 1 -22 -3 -22 -4 1 -9 0 -12 -1 -21 -8 -40 -6 -40 3 -1 7 -7 1
-16 -13 l-15 -25 6 25 c4 18 3 21 -3 11 -6 -8 -15 -10 -23 -5 -11 6 -12 5 -2
-7 8 -10 9 -19 1 -29 -8 -13 -9 -12 -5 2 3 9 -1 19 -9 22 -9 3 -12 2 -9 -5 4
-5 4 -17 1 -25 -4 -12 -10 -13 -26 -4 -17 9 -20 8 -20 -7 0 -11 -3 -14 -8 -7
-4 6 -15 13 -24 17 -12 4 -15 2 -11 -8 3 -8 10 -12 17 -8 6 3 7 2 3 -3 -5 -5
-13 -10 -18 -10 -5 -1 -14 -2 -20 -3 -5 0 -8 -5 -4 -10 3 -5 0 -13 -6 -17 -7
-4 -9 -3 -6 2 3 6 2 16 -4 24 -7 12 -9 12 -9 -3 0 -10 -5 -15 -10 -12 -6 4
-18 1 -27 -7 -13 -10 -17 -10 -20 -1 -4 10 -8 9 -19 -2 -9 -8 -12 -19 -9 -25
4 -6 3 -10 -2 -9 -19 3 -34 -2 -28 -10 3 -5 1 -12 -4 -15 -5 -4 -13 -1 -17 5
-5 8 -3 9 6 4 9 -5 11 -4 6 4 -6 9 -11 9 -24 -1 -12 -10 -14 -10 -8 0 4 6 2
12 -3 12 -6 0 -11 -8 -12 -17 0 -10 -3 -13 -5 -6 -3 7 -12 9 -20 6 -13 -5 -13
-7 -2 -14 9 -6 9 -9 1 -9 -7 0 -17 8 -23 18 -8 12 -10 12 -7 2 3 -9 -2 -25
-10 -35 -14 -19 -15 -19 -9 5 7 24 6 24 -9 -3 -13 -22 -19 -26 -35 -17 -13 7
-21 7 -26 -2 -5 -7 -3 -8 7 -3 8 5 5 -1 -5 -13 -21 -25 -36 -31 -16 -7 9 11 9
15 1 15 -7 0 -9 5 -5 13 4 6 -2 4 -13 -6 -11 -9 -23 -14 -27 -10 -4 4 -4 -1 0
-11 5 -14 9 -15 16 -4 8 10 9 10 5 -2 -2 -8 -12 -14 -22 -12 -10 2 -22 -2 -26
-10 -7 -10 -9 -9 -9 4 0 9 6 19 13 21 9 4 9 6 0 6 -7 1 -17 -8 -23 -19 -11
-21 -30 -27 -30 -9 0 5 5 7 12 3 7 -5 8 -3 3 6 -6 10 -11 9 -22 -5 -8 -12 -13
-14 -13 -6 0 11 -3 11 -17 0 -9 -8 -14 -9 -11 -4 4 6 -10 10 -35 10 -27 -1
-42 -6 -45 -15 -2 -9 0 -11 5 -5 4 6 15 11 23 13 11 3 12 0 4 -8 -6 -6 -20
-12 -32 -15 -12 -2 -27 -7 -32 -10 -6 -3 -7 1 -4 9 3 9 10 13 15 10 5 -3 9 0
9 6 0 7 -7 9 -16 6 -9 -4 -24 -1 -33 6 -14 12 -14 11 -3 -4 19 -24 7 -41 -19
-27 -15 8 -24 7 -36 -3 -15 -12 -15 -11 -4 9 10 20 9 22 -5 16 -10 -4 -15 -2
-11 3 3 6 -9 10 -28 10 -18 0 -31 -4 -29 -8 3 -4 0 -8 -5 -8 -6 0 -11 4 -11 9
0 14 -29 21 -36 9 -4 -7 -3 -8 4 -4 7 4 12 2 12 -3 0 -16 -11 -13 -33 7 -11 9
-17 12 -14 5 4 -6 3 -14 -3 -18 -9 -5 -14 6 -12 26 1 3 -5 6 -12 6 -7 0 -13
-6 -13 -13 0 -7 5 -10 11 -7 6 3 8 2 3 -2 -12 -14 -48 -14 -37 0 6 8 1 11 -20
9 -16 -1 -33 -5 -39 -8 -5 -4 -13 -1 -17 5 -5 8 -3 9 6 4 9 -5 11 -4 6 4 -11
16 -28 2 -22 -18 4 -9 -3 -5 -16 9 -12 14 -19 18 -15 8 3 -10 0 -19 -9 -22 -9
-3 -12 -1 -9 4 3 6 1 10 -5 10 -6 0 -8 4 -5 10 3 6 -1 7 -9 4 -9 -3 -16 -10
-16 -16 0 -5 5 -6 12 -2 7 4 8 3 4 -4 -5 -9 -15 -7 -34 5 -22 15 -25 15 -15 2
10 -13 10 -16 -2 -16 -8 0 -15 5 -15 10 0 5 -11 2 -25 -7 -22 -15 -24 -15 -18
0 5 13 3 15 -13 6 -10 -5 -23 -11 -29 -12 -5 -1 -12 -4 -15 -7 -3 -4 1 -3 8 1
18 11 14 -5 -5 -20 -12 -8 -22 -9 -30 -3 -8 8 -10 4 -6 -13 l6 -23 -24 20
c-19 16 -21 17 -10 2 13 -16 12 -21 -9 -40 -12 -12 -20 -17 -16 -10 3 6 2 14
-3 17 -5 4 -8 -5 -7 -19 2 -13 -1 -22 -5 -19 -5 3 -12 -1 -15 -10 -3 -8 -14
-13 -27 -11 -21 4 -22 4 -3 -10 18 -14 18 -15 2 -15 -12 0 -16 -5 -13 -14 4
-10 1 -13 -9 -9 -8 3 -13 12 -10 20 3 8 2 11 -3 8 -6 -3 -10 -13 -10 -23 -2
-46 -5 -52 -23 -46 -14 4 -16 1 -11 -12 5 -13 3 -15 -8 -9 -11 7 -11 5 1 -10
8 -10 10 -16 3 -12 -6 4 -14 3 -18 -3 -4 -6 -11 -7 -17 -4 -6 4 -6 -1 1 -14
15 -28 14 -37 -3 -23 -11 9 -16 9 -22 0 -4 -7 -3 -9 4 -5 7 4 10 -1 9 -14 -2
-24 -2 -24 -21 -4 -9 8 -16 11 -16 5 0 -5 5 -13 10 -16 8 -5 7 -11 -1 -21 -6
-7 -15 -11 -20 -8 -5 3 -9 0 -9 -6 0 -6 -5 -8 -11 -5 -6 4 -9 0 -7 -11 2 -11
-2 -18 -9 -16 -7 1 -13 -2 -13 -8 0 -5 -5 -10 -11 -10 -5 0 -7 5 -3 12 5 7 3
8 -5 3 -9 -5 -10 -10 -2 -18 8 -8 3 -19 -16 -39 -15 -15 -32 -28 -37 -28 -6 0
-20 -8 -31 -17 -15 -12 -16 -14 -3 -10 9 3 19 0 22 -8 3 -10 0 -12 -11 -8 -11
4 -14 2 -9 -5 4 -7 1 -12 -9 -12 -10 0 -13 5 -9 12 5 7 3 8 -5 4 -7 -5 -10
-10 -8 -13 3 -2 2 -17 -3 -33 -5 -18 -4 -32 3 -40 9 -10 9 -11 -2 -5 -11 6
-13 4 -8 -9 4 -10 3 -15 -3 -11 -6 3 -10 1 -10 -4 0 -6 -5 -11 -11 -11 -7 0
-5 10 5 25 9 14 12 25 6 25 -5 0 -10 -5 -10 -11 0 -5 -4 -7 -10 -4 -6 4 -9
-53 -8 -150 0 -112 3 -154 11 -146 6 6 18 11 26 10 11 0 12 -2 4 -6 -7 -2 -13
-9 -13 -15 0 -6 7 -8 15 -4 8 3 15 1 15 -4 0 -6 -8 -10 -17 -10 -15 0 -16 -2
-3 -9 8 -6 18 -7 24 -4 5 3 6 1 2 -5 -4 -6 -14 -9 -24 -6 -9 4 -3 -4 13 -16
17 -12 23 -20 14 -17 -9 3 -16 -1 -16 -9 0 -8 3 -12 5 -9 3 3 12 -1 20 -8 13
-10 14 -9 7 2 -5 9 -4 12 3 7 6 -4 8 -14 5 -23 -4 -11 -3 -14 5 -9 7 4 12 1
12 -9 0 -10 -5 -14 -13 -10 -6 4 -2 -2 10 -13 12 -11 19 -23 15 -26 -3 -4 1
-4 9 -1 9 3 22 -2 30 -11 9 -12 10 -15 2 -10 -7 4 -13 2 -13 -3 0 -6 5 -11 10
-11 6 0 10 -7 10 -16 0 -8 5 -12 10 -9 6 3 10 1 10 -5 0 -6 4 -9 9 -6 5 3 12
-6 15 -20 4 -16 13 -24 24 -22 14 2 24 -4 21 -14 -6 -21 -5 -37 2 -32 5 3 7
10 4 15 -4 5 -1 9 4 9 6 0 11 -5 11 -11 0 -5 4 -8 9 -5 8 5 23 -8 75 -63 10
-11 22 -18 27 -16 4 3 10 1 13 -4 3 -5 15 -7 25 -4 13 3 21 -2 26 -16 7 -23
16 -26 32 -10 8 8 13 7 18 -2 6 -8 4 -10 -5 -4 -9 5 -11 4 -6 -4 6 -9 11 -9
24 1 13 11 15 10 9 -5 -5 -14 -3 -16 11 -9 28 14 45 8 47 -15 1 -13 5 -26 10
-30 4 -5 5 0 2 9 -5 14 -2 17 13 15 11 -2 23 -7 27 -12 5 -4 2 -5 -6 0 -10 6
-12 4 -6 -5 6 -10 11 -9 22 5 11 17 17 14 15 -6 -2 -13 43 -4 56 11 11 13 11
13 7 -1 -4 -10 0 -16 10 -16 8 0 15 4 15 8 0 4 9 7 19 6 11 0 17 -5 15 -9 -3
-5 -10 -5 -16 -2 -7 4 -8 2 -4 -5 6 -9 14 -8 32 3 13 9 27 16 31 16 4 0 1 -5
-7 -10 -13 -8 -13 -10 2 -10 9 0 19 6 21 13 4 9 6 9 6 -1 1 -8 6 -10 14 -5 19
12 57 11 50 -1 -4 -7 -1 -6 7 1 7 6 19 9 28 6 11 -5 13 -3 7 8 -4 8 -5 11 0 7
4 -4 15 -2 24 4 9 7 13 8 9 4 -12 -14 12 -38 26 -27 6 5 25 11 41 14 16 2 31
10 33 18 3 11 2 11 -7 -1 -8 -12 -10 -11 -8 7 1 15 5 19 13 13 6 -6 15 -6 19
-2 5 4 6 3 3 -3 -4 -5 4 -10 17 -10 13 0 21 5 18 11 -2 7 1 15 8 20 7 4 10 3
5 -4 -4 -7 2 -10 14 -9 14 1 19 6 15 16 -3 9 -3 12 1 8 4 -4 16 1 27 10 11 10
17 12 13 5 -4 -6 -2 -12 3 -12 6 0 11 8 11 18 0 14 2 15 10 2 7 -11 10 -11 10
-2 0 7 5 10 10 7 6 -3 10 -2 10 3 0 5 11 8 25 7 14 -2 25 1 25 5 0 5 9 12 20
15 11 3 20 13 20 21 0 12 4 12 20 4 16 -8 20 -8 18 2 -2 7 4 11 12 10 8 -2 12
0 8 4 -4 4 -2 14 4 23 7 9 1 6 -14 -7 -19 -17 -28 -20 -33 -11 -5 7 -4 10 2 6
5 -3 17 3 26 14 9 10 24 19 32 19 10 0 13 5 9 13 -5 8 -3 8 9 -2 14 -11 18
-11 23 3 3 9 10 14 14 11 12 -7 28 18 25 38 -3 13 0 15 9 8 9 -8 22 0 47 26
19 21 29 34 23 30 -7 -4 -14 -1 -17 7 -6 16 23 17 36 1 5 -6 7 -4 4 5 -2 8
-10 14 -17 12 -10 -2 -11 0 -2 11 7 8 8 17 4 21 -4 5 2 6 13 4 14 -2 20 2 19
14 -1 10 3 16 10 15 6 -1 10 8 10 20 -1 14 3 20 12 16 8 -3 14 -1 14 5 0 6 -6
13 -12 15 -8 3 -7 6 4 6 9 1 20 6 24 13 4 7 3 8 -4 4 -7 -4 -12 -2 -12 3 0 6
7 11 15 11 9 0 12 6 8 17 -4 10 -2 14 5 9 6 -3 13 -2 16 3 4 5 1 13 -5 17 -8
5 -9 3 -4 -6 5 -8 4 -11 -3 -7 -12 8 -10 32 3 44 4 4 5 2 1 -4 -4 -7 -2 -13 3
-13 17 0 13 18 -6 30 -17 11 -17 11 1 6 13 -5 17 -2 13 8 -4 10 -1 13 7 10 8
-3 17 0 22 7 4 8 3 10 -4 5 -7 -4 -12 -2 -12 3 0 6 6 11 13 11 8 0 8 3 -2 9
-11 7 -10 10 5 14 17 4 17 5 1 6 -10 0 -15 6 -12 11 4 6 12 7 18 3 7 -4 6 1
-2 10 -12 16 -12 17 5 12 12 -4 9 0 -6 9 -23 14 -23 15 -5 16 12 1 15 4 7 7
-10 4 -9 9 5 20 10 8 13 12 7 9 -7 -3 -15 1 -18 10 -3 8 -2 12 4 9 11 -7 12
-4 15 37 2 23 -1 26 -11 17 -20 -16 -17 -6 5 19 10 12 22 18 27 14 4 -4 2 1
-5 11 -7 9 -21 17 -30 17 -10 0 -12 3 -5 8 6 4 10 15 8 25 -1 9 2 15 7 11 5
-3 7 -9 4 -14 -3 -5 -1 -11 4 -15 6 -3 8 4 6 17 -3 12 1 26 8 31 7 5 3 6 -10
2 -14 -4 -23 -2 -23 4 0 6 7 12 15 12 29 3 33 4 42 12 4 5 3 8 -2 7 -24 -5
-26 1 -4 21 l24 20 -23 -11 c-21 -10 -22 -10 -11 8 7 12 19 18 27 14 9 -3 13
-1 9 5 -10 16 36 53 61 48 12 -2 24 1 27 6 4 5 11 6 17 3 7 -4 8 -2 4 5 -6 9
-11 9 -21 1 -10 -8 -15 -8 -21 1 -4 7 -3 9 4 5 6 -3 14 -2 17 4 5 8 14 6 30
-4 21 -14 23 -14 18 4 -3 11 -10 17 -17 13 -6 -3 -7 -2 -3 2 10 12 38 15 31 4
-3 -5 0 -9 5 -9 6 0 11 6 11 14 0 8 5 18 12 22 6 4 8 3 4 -4 -4 -7 2 -10 14
-9 11 1 19 6 16 12 -5 13 22 13 42 1 8 -5 11 -3 10 6 -2 7 5 12 14 12 11 -1
15 4 10 15 -5 14 -4 14 11 2 15 -12 17 -12 12 2 -8 19 7 29 25 15 12 -8 11 -8
-5 -3 -16 5 -17 4 -8 -6 10 -10 18 -7 39 14 15 15 31 27 36 27 5 0 6 4 3 10
-4 6 1 7 11 3 11 -4 13 -8 6 -11 -7 -2 -12 -8 -12 -14 0 -6 6 -5 15 2 9 7 14
19 11 25 -3 9 5 11 30 5 25 -6 34 -5 34 5 0 7 7 15 15 19 8 3 13 11 11 18 -1
7 -1 10 1 5 3 -4 10 -4 16 0 7 3 1 -7 -13 -22 l-25 -29 29 22 c15 12 33 19 39
15 5 -3 7 -1 3 5 -3 6 -2 13 4 17 5 3 10 1 10 -4 0 -6 5 -11 11 -11 5 0 7 6 3
13 -6 9 -4 9 8 -1 13 -10 17 -10 22 3 3 9 2 13 -3 10 -5 -3 -12 -2 -15 3 -2 4
5 9 16 9 12 1 25 8 29 15 5 7 9 8 9 2 0 -5 -5 -15 -12 -22 -9 -9 -9 -12 0 -12
7 0 12 5 12 11 0 5 4 7 10 4 5 -3 7 0 4 8 -6 17 22 31 32 15 5 -7 2 -8 -6 -3
-9 5 -11 4 -6 -4 6 -9 11 -9 21 -1 8 7 19 9 24 5 7 -4 10 84 10 267 0 230 -3
270 -14 255 -8 -11 -14 -14 -17 -7 -6 18 -58 20 -58 2z m-135 -61 c-8 -14 -25
-14 -25 0 0 5 5 7 10 4 6 -3 10 -1 10 6 0 7 3 10 6 6 3 -3 3 -10 -1 -16z
m-1521 -399 c3 -5 -1 -9 -9 -9 -8 0 -12 4 -9 9 3 4 7 8 9 8 2 0 6 -4 9 -8z
m1736 -36 c0 -2 -7 -7 -16 -10 -8 -3 -12 -2 -9 4 6 10 25 14 25 6z m-1794 -73
c-4 12 0 17 14 17 11 0 20 -4 20 -8 0 -5 7 -9 15 -9 11 0 12 4 3 14 -8 11 -7
12 6 7 9 -3 16 -11 16 -16 0 -6 8 -4 17 3 14 12 16 12 9 0 -6 -9 -5 -12 5 -9
8 3 13 11 11 17 -1 7 2 10 8 6 6 -3 8 -11 5 -16 -4 -5 -1 -9 4 -9 6 0 11 6 12
13 0 10 2 10 6 0 2 -7 11 -13 19 -13 9 0 12 5 8 13 -6 10 -4 10 7 0 16 -15 33
-17 24 -3 -3 5 0 7 9 4 9 -3 12 -13 9 -22 -4 -13 -2 -12 11 3 10 11 15 13 11
5 -4 -8 1 -6 11 5 14 17 16 17 11 3 -7 -21 -3 -22 23 -8 16 9 19 8 14 -7 -5
-15 -3 -15 12 2 15 18 16 18 10 1 -5 -15 -2 -18 19 -14 19 4 23 2 15 -7 -7 -8
-5 -12 8 -12 9 0 20 4 23 9 3 5 9 2 12 -7 5 -10 3 -14 -5 -9 -7 4 -8 3 -4 -4
5 -9 12 -8 27 1 16 10 21 9 29 -3 5 -8 6 -18 3 -24 -3 -5 -1 -6 5 -2 6 3 13 2
17 -3 3 -6 13 -7 22 -4 11 4 14 3 9 -5 -4 -7 -2 -12 3 -12 6 0 11 6 11 13 0 8
3 7 9 -3 6 -8 7 -18 5 -22 -3 -5 -2 -8 3 -7 21 4 31 -3 36 -21 3 -11 12 -20
21 -20 9 0 16 -5 16 -11 0 -5 5 -7 12 -3 7 4 8 3 4 -5 -4 -6 -11 -9 -16 -6 -5
3 -12 0 -16 -7 -4 -7 -4 -10 1 -6 4 4 17 2 29 -4 11 -7 25 -11 29 -10 5 1 6
-2 2 -8 -3 -6 -11 -8 -16 -5 -5 4 -9 1 -9 -4 0 -10 14 -15 33 -12 5 1 5 -3 2
-9 -4 -6 -13 -9 -21 -6 -11 4 -10 -1 3 -22 l17 -27 -28 25 -29 25 19 -29 c19
-29 19 -30 -3 -24 -20 5 -21 3 -12 -20 6 -16 6 -29 0 -35 -5 -5 -7 -17 -5 -26
3 -9 -1 -5 -9 8 -8 14 -17 19 -21 13 -3 -6 -1 -12 4 -14 6 -2 4 -11 -5 -23 -9
-11 -14 -14 -10 -7 3 6 1 12 -6 12 -6 0 -9 -8 -6 -19 3 -14 0 -19 -13 -16 -11
2 -17 -2 -16 -13 1 -12 -5 -16 -18 -14 -17 3 -18 1 -7 -11 9 -12 9 -17 0 -23
-8 -4 -9 -3 -5 4 4 7 1 12 -8 12 -8 0 -18 -5 -22 -12 -4 -7 -3 -8 4 -4 8 5 10
2 6 -8 -7 -18 -24 -21 -24 -5 0 8 -4 9 -13 0 -8 -6 -16 -8 -19 -6 -3 3 -3 -6
0 -21 3 -19 1 -25 -7 -20 -6 4 -9 12 -6 17 11 17 -2 9 -21 -13 -10 -12 -14
-19 -9 -15 6 3 17 1 25 -4 12 -7 11 -8 -5 -6 -11 1 -26 7 -34 11 -11 7 -13 5
-7 -9 5 -15 4 -16 -9 -5 -13 11 -16 11 -13 -1 2 -8 7 -17 11 -20 5 -3 2 -9 -7
-12 -8 -3 -18 -1 -22 5 -5 7 -2 8 6 3 9 -5 11 -4 6 4 -11 17 -25 4 -21 -19 2
-12 0 -18 -6 -15 -5 4 -9 14 -10 23 0 11 -4 8 -10 -8 -10 -24 -11 -24 -25 -6
-17 23 -19 13 -3 -16 8 -15 8 -19 0 -14 -6 4 -14 0 -17 -9 -6 -14 -8 -14 -19
1 -9 14 -14 14 -20 4 -6 -9 -4 -11 5 -5 9 5 11 4 6 -4 -4 -6 -11 -9 -15 -7 -4
3 -13 1 -21 -4 -9 -5 -19 -5 -27 1 -9 8 -11 4 -7 -18 l4 -28 -15 25 -14 25 -1
-24 c0 -21 -2 -22 -17 -10 -11 10 -14 10 -9 2 4 -8 2 -13 -6 -13 -8 0 -20 6
-27 13 -11 10 -11 8 -1 -13 l13 -25 -23 20 c-13 11 -20 14 -15 6 6 -10 3 -12
-13 -7 -11 4 -23 2 -27 -4 -3 -6 -11 -7 -17 -4 -7 5 -8 2 -3 -5 5 -9 10 -10
18 -2 6 6 15 11 20 11 5 0 1 -7 -8 -16 -14 -14 -18 -15 -39 0 -23 14 -24 14
-19 -7 5 -17 3 -20 -7 -10 -15 14 -43 5 -33 -11 5 -8 3 -8 -8 0 -8 5 -20 9
-26 8 -7 -1 -18 -2 -24 -3 -5 0 -7 -5 -4 -11 3 -6 -1 -7 -9 -4 -9 3 -13 11
-10 18 3 6 -1 3 -9 -7 -11 -14 -16 -15 -20 -5 -3 8 -6 5 -6 -7 -1 -16 -3 -17
-10 -5 -6 8 -7 18 -5 22 3 4 0 8 -6 8 -7 0 -10 -6 -7 -14 4 -10 0 -12 -15 -8
-13 3 -19 1 -15 -5 3 -5 0 -10 -8 -10 -8 0 -12 4 -9 9 5 8 -9 12 -40 8 -13 -1
-16 2 -10 12 6 10 5 11 -7 2 -16 -13 -81 -15 -73 -2 3 4 -5 8 -16 8 -17 0 -21
4 -16 18 6 16 5 16 -8 -1 -12 -16 -14 -16 -20 -2 -3 9 -2 13 4 10 6 -3 10 -1
10 4 0 6 -6 11 -13 11 -7 0 -19 10 -27 23 -16 26 -22 69 -7 60 6 -3 7 -1 3 5
-4 7 -1 12 6 13 9 0 10 2 1 5 -7 3 -9 12 -6 20 3 8 0 14 -5 14 -6 0 -9 -9 -7
-20 2 -11 0 -20 -4 -20 -4 0 -7 17 -7 39 0 32 2 36 14 25 23 -23 24 -16 3 15
l-20 28 27 -4 c23 -3 24 -2 7 6 -11 6 -14 10 -6 10 10 1 11 4 2 15 -9 11 -9
16 0 22 8 4 9 3 5 -4 -4 -7 -2 -12 3 -12 6 0 11 9 11 21 0 13 -4 18 -13 14 -6
-4 -4 0 5 8 19 15 25 32 8 22 -5 -3 -10 -1 -10 4 0 6 8 11 18 11 14 0 15 2 2
10 -10 6 -11 10 -2 10 6 0 12 7 12 15 0 8 5 15 11 15 6 0 9 9 6 20 -4 17 -2
18 15 9 15 -8 19 -8 13 0 -4 7 -2 18 5 26 8 9 8 15 0 20 -6 4 -9 1 -8 -6 2 -6
-4 -14 -12 -16 -13 -4 -13 -3 0 6 8 6 11 11 6 11 -5 0 -1 9 9 20 10 12 25 18
32 16 7 -3 12 -2 11 2 -1 4 4 18 11 30 7 13 10 26 7 30 -3 3 -6 0 -6 -6 0 -7
-5 -12 -12 -12 -6 0 -2 10 10 23 12 13 19 27 15 32 -5 4 -2 5 5 1 11 -6 11
-11 0 -24 -11 -13 -11 -14 2 -10 8 2 16 17 18 32 2 18 8 26 17 22 18 -7 27 5
14 20 -8 10 -5 11 13 7 18 -4 20 -3 8 6 -14 10 -7 16 14 12 15 -3 36 21 36 40
0 12 5 16 14 13 8 -3 17 0 22 7 4 7 3 10 -4 5 -6 -3 -14 -1 -18 6 -4 7 -4 10
1 6 4 -4 15 -2 23 5 11 8 14 8 9 0 -4 -6 -3 -14 3 -18 5 -3 10 1 10 9 0 19 16
21 26 4 5 -7 11 -5 21 7 9 14 13 15 13 4 0 -12 2 -12 10 1 6 10 10 11 10 3 0
-7 5 -13 11 -13 5 0 7 5 4 10 -3 6 -1 10 4 10 6 0 11 -6 11 -12 0 -10 3 -9 9
1 7 11 9 11 14 0 3 -9 6 -7 7 6 1 18 2 18 16 -5 8 -14 13 -17 10 -7z m494 -79
c0 -3 -7 -1 -15 6 -8 7 -15 17 -15 22 0 5 7 3 15 -6 8 -8 15 -18 15 -22z
m-730 22 c0 -3 -4 -8 -10 -11 -5 -3 -10 -1 -10 4 0 6 5 11 10 11 6 0 10 -2 10
-4z m845 -86 c-3 -5 -12 -10 -18 -10 -7 0 -6 4 3 10 19 12 23 12 15 0z m380
-300 c-3 -5 -12 -10 -18 -10 -7 0 -6 4 3 10 19 12 23 12 15 0z m-5 -70 c0 -5
-2 -10 -4 -10 -3 0 -8 5 -11 10 -3 6 -1 10 4 10 6 0 11 -4 11 -10z m-535 -20
c3 -5 1 -10 -4 -10 -6 0 -11 5 -11 10 0 6 2 10 4 10 3 0 8 -4 11 -10z m-521
-246 c3 -8 2 -12 -4 -9 -6 3 -10 10 -10 16 0 14 7 11 14 -7z m-44 0 c0 -8 -19
-13 -24 -6 -3 5 1 9 9 9 8 0 15 -2 15 -3z m-656 -34 c-6 -6 -10 -3 -10 10 0
13 4 16 10 10 7 -7 7 -13 0 -20z m1546 -220 c-12 -23 -30 -35 -30 -21 0 6 5
11 11 11 6 0 9 6 6 14 -6 16 2 28 14 20 5 -3 5 -14 -1 -24z m-89 -77 c-12 -20
-14 -14 -5 12 4 9 9 14 11 11 3 -2 0 -13 -6 -23z m39 23 c0 -3 -4 -8 -10 -11
-5 -3 -10 -1 -10 4 0 6 5 11 10 11 6 0 10 -2 10 -4z m-1270 -30 c0 -3 -4 -8
-10 -11 -5 -3 -10 -1 -10 4 0 6 5 11 10 11 6 0 10 -2 10 -4z m1110 -82 c0 -2
-15 -11 -32 -19 -31 -15 -31 -15 -13 0 11 9 19 20 18 25 -2 5 4 7 12 4 8 -4
15 -8 15 -10z m-985 -30 c9 -15 12 -23 6 -20 -11 7 -35 46 -28 46 3 0 12 -12
22 -26z m55 -18 c0 -3 -4 -8 -10 -11 -5 -3 -10 -1 -10 4 0 6 5 11 10 11 6 0
10 -2 10 -4z m623 -77 c-8 -8 -13 -7 -18 2 -5 8 -4 10 3 5 7 -4 12 -2 12 5 0
7 3 9 7 6 4 -4 2 -12 -4 -18z m-33 -13 c0 -3 -4 -8 -10 -11 -5 -3 -10 -1 -10
4 0 6 5 11 10 11 6 0 10 -2 10 -4z"/>
<path d="M386 1452 c-3 -5 1 -9 9 -9 8 0 12 4 9 9 -3 4 -7 8 -9 8 -2 0 -6 -4
-9 -8z"/>
<path d="M588 1400 c-1 -5 -4 -29 -7 -58 0 -7 -6 -10 -13 -6 -7 4 -8 3 -4 -5
4 -6 12 -9 17 -6 5 4 9 -1 9 -10 0 -9 5 -13 10 -10 6 4 18 1 27 -7 14 -11 15
-10 9 12 -4 14 -4 20 1 14 4 -6 17 -14 28 -17 20 -7 20 -7 1 8 -19 15 -19 15
5 15 13 0 19 4 13 8 -13 9 -27 45 -15 37 5 -3 13 0 17 6 4 8 3 9 -4 5 -7 -4
-12 -3 -12 2 0 6 -9 8 -20 5 -11 -3 -20 -1 -20 5 0 11 -39 13 -42 2z"/>
<path d="M1395 1360 c3 -5 8 -10 11 -10 2 0 4 5 4 10 0 6 -5 10 -11 10 -5 0
-7 -4 -4 -10z"/>
<path d="M505 1250 c-3 -6 1 -7 9 -4 9 3 16 2 16 -3 0 -13 -33 -13 -41 0 -4 5
-12 0 -18 -11 -8 -15 -8 -23 1 -28 7 -5 8 -3 3 7 -5 8 -4 10 0 6 15 -13 14
-36 -1 -30 -11 4 -12 -1 -2 -28 6 -19 13 -28 16 -21 2 6 16 12 32 12 16 0 30
3 33 8 2 4 2 2 1 -5 -2 -7 2 -15 9 -19 7 -4 9 -4 6 0 -4 4 -3 22 1 41 6 25 4
35 -7 39 -8 3 -11 11 -7 17 4 7 3 9 -3 6 -6 -4 -13 0 -17 8 -6 17 -22 20 -31
5z"/>
<path d="M702 1243 c8 -10 7 -12 -5 -8 -8 4 -18 1 -23 -6 -4 -8 -3 -10 4 -5 7
4 12 3 12 -3 0 -5 -6 -12 -12 -14 -9 -4 -9 -6 1 -6 11 -1 10 -5 -5 -16 -18
-14 -18 -14 6 -10 24 4 24 4 6 -10 -15 -11 -16 -15 -5 -16 8 0 22 -2 32 -4 9
-2 17 2 18 8 0 7 4 3 9 -8 7 -16 9 -17 9 -3 1 9 6 20 13 24 6 4 8 3 5 -3 -3
-5 0 -10 8 -10 12 0 12 4 -2 20 -17 19 -17 19 7 13 14 -3 19 -3 12 0 -6 3 -9
11 -5 17 4 6 0 8 -11 4 -14 -5 -15 -3 -6 12 7 14 6 22 -5 31 -12 10 -16 9 -21
-4 -3 -9 -10 -13 -15 -10 -5 3 -7 9 -5 13 3 3 -4 7 -14 7 -14 0 -16 -3 -8 -13z
m63 -3 c3 -5 1 -10 -4 -10 -6 0 -11 5 -11 10 0 6 2 10 4 10 3 0 8 -4 11 -10z"/>
<path d="M1020 1059 c0 -5 5 -7 10 -4 6 3 10 8 10 11 0 2 -4 4 -10 4 -5 0 -10
-5 -10 -11z"/>
<path d="M283 1044 c0 -8 9 -22 19 -31 18 -16 18 -16 12 0 -3 9 -11 17 -18 17
-7 0 -6 3 2 9 11 7 11 9 0 14 -9 3 -15 -1 -15 -9z"/>
<path d="M956 1043 c-6 -14 -5 -15 5 -6 7 7 10 15 7 18 -3 3 -9 -2 -12 -12z"/>
<path d="M2040 2101 c0 -7 -5 -9 -12 -5 -7 5 -8 3 -3 -5 5 -9 10 -10 18 -2 6
6 8 14 4 18 -4 3 -7 1 -7 -6z"/>
<path d="M1916 2047 c3 -10 9 -15 12 -12 3 3 0 11 -7 18 -10 9 -11 8 -5 -6z"/>
<path d="M1120 1816 c0 -3 9 -10 20 -16 11 -6 20 -8 20 -6 0 3 -9 10 -20 16
-11 6 -20 8 -20 6z"/>
<path d="M477 1745 c3 -8 9 -12 14 -9 12 7 11 11 -5 17 -10 4 -13 1 -9 -8z"/>
<path d="M426 1698 c3 -5 10 -6 15 -3 13 9 11 12 -6 12 -8 0 -12 -4 -9 -9z"/>
<path d="M2220 1625 c-7 -9 -8 -15 -2 -15 5 0 12 7 16 15 3 8 4 15 2 15 -2 0
-9 -7 -16 -15z"/>
<path d="M1870 1475 c-8 -9 -8 -15 -2 -15 12 0 26 19 19 26 -2 2 -10 -2 -17
-11z"/>
<path d="M236 1448 c3 -5 10 -6 15 -3 13 9 11 12 -6 12 -8 0 -12 -4 -9 -9z"/>
<path d="M142 1361 c2 -19 -4 -24 -13 -11 -9 13 -10 13 -6 -2 3 -9 1 -19 -6
-22 -7 -2 -8 -5 -1 -5 6 -1 20 10 32 22 17 17 18 24 8 24 -8 0 -15 -3 -14 -6z"/>
<path d="M1750 979 c0 -5 5 -7 10 -4 6 3 10 8 10 11 0 2 -4 4 -10 4 -5 0 -10
-5 -10 -11z"/>
<path d="M290 520 c0 -5 5 -10 11 -10 5 0 7 5 4 10 -3 6 -8 10 -11 10 -2 0 -4
-4 -4 -10z"/>
<path d="M315 501 c-3 -5 -2 -12 3 -15 5 -3 9 1 9 9 0 17 -3 19 -12 6z"/>
<path d="M420 430 c-9 -6 -10 -10 -3 -10 6 0 15 5 18 10 8 12 4 12 -15 0z"/>
<path d="M1206 431 c-4 -5 -2 -12 3 -15 5 -4 12 -2 15 3 4 5 2 12 -3 15 -5 4
-12 2 -15 -3z"/>
<path d="M537 381 c-10 -14 -10 -14 4 -4 9 7 18 10 21 7 3 -3 8 -1 12 4 9 16
-24 9 -37 -7z"/>
<path d="M876 348 c3 -5 10 -6 15 -3 13 9 11 12 -6 12 -8 0 -12 -4 -9 -9z"/>
</g>
</svg>
